<svg>
    <symbol id="astro-logo-dark" viewBox="0 0 85 107" fill="none" xmlns="http://www.w3.org/2000/svg">
        <path
            d="M27.5893 91.1365C22.7555 86.7178 21.3443 77.4335 23.3583 70.7072C26.8503 74.948 31.6888 76.2914 36.7005 77.0497C44.4374 78.2199 52.0358 77.7822 59.2231 74.2459C60.0453 73.841 60.8052 73.3027 61.7036 72.7574C62.378 74.714 62.5535 76.6892 62.3179 78.6996C61.7452 83.5957 59.3086 87.3778 55.4332 90.2448C53.8835 91.3916 52.2437 92.4167 50.6432 93.4979C45.7262 96.8213 44.3959 100.718 46.2435 106.386C46.2874 106.525 46.3267 106.663 46.426 107C43.9155 105.876 42.0817 104.24 40.6844 102.089C39.2086 99.8193 38.5065 97.3081 38.4696 94.5909C38.4511 93.2686 38.4511 91.9345 38.2733 90.6309C37.8391 87.4527 36.3471 86.0297 33.5364 85.9478C30.6518 85.8636 28.37 87.6469 27.7649 90.4554C27.7187 90.6707 27.6517 90.8837 27.5847 91.1341L27.5893 91.1365Z"
            fill="#17191E" />
        <path
            d="M0 69.5866C0 69.5866 14.3139 62.6137 28.6678 62.6137L39.4901 29.1204C39.8953 27.5007 41.0783 26.3999 42.4139 26.3999C43.7495 26.3999 44.9325 27.5007 45.3377 29.1204L56.1601 62.6137C73.1601 62.6137 84.8278 69.5866 84.8278 69.5866C84.8278 69.5866 60.5145 3.35233 60.467 3.21944C59.7692 1.2612 58.5911 0 57.0029 0H27.8274C26.2392 0 25.1087 1.2612 24.3634 3.21944C24.3108 3.34983 0 69.5866 0 69.5866Z"
            fill="#17191E" />
    </symbol>

    <symbol id="astro-logo-light" viewBox="0 0 85 107" fill="none"
        xmlns="http://www.w3.org/2000/svg">
        <path
            d="M27.5893 91.1365C22.7555 86.7178 21.3443 77.4335 23.3583 70.7072C26.8503 74.948 31.6888 76.2914 36.7005 77.0497C44.4374 78.2199 52.0358 77.7822 59.2231 74.2459C60.0453 73.841 60.8052 73.3027 61.7036 72.7574C62.378 74.714 62.5535 76.6892 62.3179 78.6996C61.7452 83.5957 59.3086 87.3778 55.4332 90.2448C53.8835 91.3916 52.2437 92.4167 50.6432 93.4979C45.7262 96.8213 44.3959 100.718 46.2435 106.386C46.2874 106.525 46.3267 106.663 46.426 107C43.9155 105.876 42.0817 104.24 40.6844 102.089C39.2086 99.8193 38.5065 97.3081 38.4696 94.5909C38.4511 93.2686 38.4511 91.9345 38.2733 90.6309C37.8391 87.4527 36.3471 86.0297 33.5364 85.9478C30.6518 85.8636 28.37 87.6469 27.7649 90.4554C27.7187 90.6707 27.6517 90.8837 27.5847 91.1341L27.5893 91.1365Z"
            fill="white" />
        <path
            d="M0 69.5866C0 69.5866 14.3139 62.6137 28.6678 62.6137L39.4901 29.1204C39.8953 27.5007 41.0783 26.3999 42.4139 26.3999C43.7495 26.3999 44.9325 27.5007 45.3377 29.1204L56.1601 62.6137C73.1601 62.6137 84.8278 69.5866 84.8278 69.5866C84.8278 69.5866 60.5145 3.35233 60.467 3.21944C59.7692 1.2612 58.5911 0 57.0029 0H27.8274C26.2392 0 25.1087 1.2612 24.3634 3.21944C24.3108 3.34983 0 69.5866 0 69.5866Z"
            fill="white" />
    </symbol>

    <symbol id="cpp-logo-color" version="1.1" xmlns="http://www.w3.org/2000/svg"
        xmlns:xlink="http://www.w3.org/1999/xlink" x="0px" y="0px"
        viewBox="0 0 306 344.35" enable-background="new 0 0 306 344.35" xml:space="preserve">
        <path fill="#00599C" d="M302.107,258.262c2.401-4.159,3.893-8.845,3.893-13.053V99.14c0-4.208-1.49-8.893-3.892-13.052L153,172.175  L302.107,258.262z"/>
        <path fill="#004482" d="M166.25,341.193l126.5-73.034c3.644-2.104,6.956-5.737,9.357-9.897L153,172.175L3.893,258.263  c2.401,4.159,5.714,7.793,9.357,9.896l126.5,73.034C147.037,345.401,158.963,345.401,166.25,341.193z"/>
        <path fill="#659AD2" d="M302.108,86.087c-2.402-4.16-5.715-7.793-9.358-9.897L166.25,3.156c-7.287-4.208-19.213-4.208-26.5,0  L13.25,76.19C5.962,80.397,0,90.725,0,99.14v146.069c0,4.208,1.491,8.894,3.893,13.053L153,172.175L302.108,86.087z"/>
        <g>
            <path fill="#FFFFFF" d="M153,274.175c-56.243,0-102-45.757-102-102s45.757-102,102-102c36.292,0,70.139,19.53,88.331,50.968   l-44.143,25.544c-9.105-15.736-26.038-25.512-44.188-25.512c-28.122,0-51,22.878-51,51c0,28.121,22.878,51,51,51   c18.152,0,35.085-9.776,44.191-25.515l44.143,25.543C223.142,254.644,189.294,274.175,153,274.175z"/>
        </g>
        <g>
            <polygon fill="#FFFFFF" points="255,166.508 243.666,166.508 243.666,155.175 232.334,155.175 232.334,166.508 221,166.508    221,177.841 232.334,177.841 232.334,189.175 243.666,189.175 243.666,177.841 255,177.841  "/>
        </g>
        <g>
            <polygon fill="#FFFFFF" points="297.5,166.508 286.166,166.508 286.166,155.175 274.834,155.175 274.834,166.508 263.5,166.508    263.5,177.841 274.834,177.841 274.834,189.175 286.166,189.175 286.166,177.841 297.5,177.841  "/>
        </g>
    </symbol>

    <symbol id="python-logo" xmlns="http://www.w3.org/2000/svg"
        xmlns:xlink="http://www.w3.org/1999/xlink" viewBox="0 0 111.161 111.668" version="1.0">
        <defs>
            <linearGradient id="a">
                <stop offset="0" style="stop-color:#ffd43b;stop-opacity:1" />
                <stop offset="1" style="stop-color:#ffe873;stop-opacity:1" />
            </linearGradient>
            <linearGradient id="b">
                <stop offset="0" style="stop-color:#5a9fd4;stop-opacity:1" />
                <stop offset="1" style="stop-color:#306998;stop-opacity:1" />
            </linearGradient>
            <linearGradient href="#a" id="e" x1="150.961" x2="112.031"
                y1="192.352"
                y2="137.273"
                gradientTransform="matrix(.56254 0 0 .56797 -14.991 -11.702)"
                gradientUnits="userSpaceOnUse" />
            <linearGradient href="#b" id="d" x1="26.649" x2="135.665"
                y1="20.604"
                y2="114.398"
                gradientTransform="matrix(.56254 0 0 .56797 -14.991 -11.702)"
                gradientUnits="userSpaceOnUse" />
        </defs>
        <path
            d="M54.919 0c-4.584.022-8.961.413-12.813 1.095C30.76 3.099 28.7 7.295 28.7 15.032v10.219h26.813v3.406H18.638c-7.793 0-14.616 4.684-16.75 13.594-2.462 10.213-2.571 16.586 0 27.25 1.905 7.938 6.457 13.594 14.25 13.594h9.218v-12.25c0-8.85 7.657-16.657 16.75-16.657h26.782c7.454 0 13.406-6.138 13.406-13.625v-25.53c0-7.267-6.13-12.726-13.406-13.938C64.282.328 59.502-.02 54.918 0Zm-14.5 8.22c2.77 0 5.031 2.298 5.031 5.125 0 2.816-2.262 5.093-5.031 5.093-2.78 0-5.031-2.277-5.031-5.093 0-2.827 2.251-5.125 5.03-5.125z"
            style="fill:url(#d);fill-opacity:1" />
        <path
            d="M85.638 28.657v11.906c0 9.231-7.826 17-16.75 17H42.106c-7.336 0-13.406 6.279-13.406 13.625V96.72c0 7.266 6.319 11.54 13.406 13.625 8.488 2.495 16.627 2.946 26.782 0 6.75-1.955 13.406-5.888 13.406-13.625V86.5H55.513v-3.405H95.7c7.793 0 10.696-5.436 13.406-13.594 2.8-8.399 2.68-16.476 0-27.25-1.925-7.758-5.604-13.594-13.406-13.594zM70.575 93.313c2.78 0 5.031 2.278 5.031 5.094 0 2.827-2.251 5.125-5.031 5.125-2.77 0-5.031-2.298-5.031-5.125 0-2.816 2.261-5.094 5.031-5.094z"
            style="fill:url(#e);fill-opacity:1" />
    </symbol>

    <symbol id="rust-logo" viewBox="0 0 144 144" xmlns="http://www.w3.org/2000/svg">
        <path
            d="m71.05 23.68c-26.06 0-47.27 21.22-47.27 47.27s21.22 47.27 47.27 47.27 47.27-21.22 47.27-47.27-21.22-47.27-47.27-47.27zm-.07 4.2a3.1 3.11 0 0 1 3.02 3.11 3.11 3.11 0 0 1 -6.22 0 3.11 3.11 0 0 1 3.2-3.11zm7.12 5.12a38.27 38.27 0 0 1 26.2 18.66l-3.67 8.28c-.63 1.43.02 3.11 1.44 3.75l7.06 3.13a38.27 38.27 0 0 1 .08 6.64h-3.93c-.39 0-.55.26-.55.64v1.8c0 4.24-2.39 5.17-4.49 5.4-2 .23-4.21-.84-4.49-2.06-1.18-6.63-3.14-8.04-6.24-10.49 3.85-2.44 7.85-6.05 7.85-10.87 0-5.21-3.57-8.49-6-10.1-3.42-2.25-7.2-2.7-8.22-2.7h-40.6a38.27 38.27 0 0 1 21.41-12.08l4.79 5.02c1.08 1.13 2.87 1.18 4 .09zm-44.2 23.02a3.11 3.11 0 0 1 3.02 3.11 3.11 3.11 0 0 1 -6.22 0 3.11 3.11 0 0 1 3.2-3.11zm74.15.14a3.11 3.11 0 0 1 3.02 3.11 3.11 3.11 0 0 1 -6.22 0 3.11 3.11 0 0 1 3.2-3.11zm-68.29.5h5.42v24.44h-10.94a38.27 38.27 0 0 1 -1.24-14.61l6.7-2.98c1.43-.64 2.08-2.31 1.44-3.74zm22.62.26h12.91c.67 0 4.71.77 4.71 3.8 0 2.51-3.1 3.41-5.65 3.41h-11.98zm0 17.56h9.89c.9 0 4.83.26 6.08 5.28.39 1.54 1.26 6.56 1.85 8.17.59 1.8 2.98 5.4 5.53 5.4h16.14a38.27 38.27 0 0 1 -3.54 4.1l-6.57-1.41c-1.53-.33-3.04.65-3.37 2.18l-1.56 7.28a38.27 38.27 0 0 1 -31.91-.15l-1.56-7.28c-.33-1.53-1.83-2.51-3.36-2.18l-6.43 1.38a38.27 38.27 0 0 1 -3.32-3.92h31.27c.35 0 .59-.06.59-.39v-11.06c0-.32-.24-.39-.59-.39h-9.15zm-14.43 25.33a3.11 3.11 0 0 1 3.02 3.11 3.11 3.11 0 0 1 -6.22 0 3.11 3.11 0 0 1 3.2-3.11zm46.05.14a3.11 3.11 0 0 1 3.02 3.11 3.11 3.11 0 0 1 -6.22 0 3.11 3.11 0 0 1 3.2-3.11z" />
        <path
            d="m115.68 70.95a44.63 44.63 0 0 1 -44.63 44.63 44.63 44.63 0 0 1 -44.63-44.63 44.63 44.63 0 0 1 44.63-44.63 44.63 44.63 0 0 1 44.63 44.63zm-.84-4.31 6.96 4.31-6.96 4.31 5.98 5.59-7.66 2.87 4.78 6.65-8.09 1.32 3.4 7.46-8.19-.29 1.88 7.98-7.98-1.88.29 8.19-7.46-3.4-1.32 8.09-6.65-4.78-2.87 7.66-5.59-5.98-4.31 6.96-4.31-6.96-5.59 5.98-2.87-7.66-6.65 4.78-1.32-8.09-7.46 3.4.29-8.19-7.98 1.88 1.88-7.98-8.19.29 3.4-7.46-8.09-1.32 4.78-6.65-7.66-2.87 5.98-5.59-6.96-4.31 6.96-4.31-5.98-5.59 7.66-2.87-4.78-6.65 8.09-1.32-3.4-7.46 8.19.29-1.88-7.98 7.98 1.88-.29-8.19 7.46 3.4 1.32-8.09 6.65 4.78 2.87-7.66 5.59 5.98 4.31-6.96 4.31 6.96 5.59-5.98 2.87 7.66 6.65-4.78 1.32 8.09 7.46-3.4-.29 8.19 7.98-1.88-1.88 7.98 8.19-.29-3.4 7.46 8.09 1.32-4.78 6.65 7.66 2.87z"
            fill-rule="evenodd" stroke="#000" stroke-linecap="round" stroke-linejoin="round"
            stroke-width="3" />
    </symbol>

    <symbol id="tokio-logo" viewBox="0 0 120 108" version="1.1"
        xmlns="http://www.w3.org/2000/svg" xmlns:xlink="http://www.w3.org/1999/xlink">
        <defs />
        <g id="Page-1" stroke="none" stroke-width="1" fill="none" fill-rule="evenodd">
            <g id="01" transform="translate(-900.000000, -275.000000)" fill="#000000">
                <g id="Group-Copy-2" transform="translate(900.000000, 275.000000)">
                    <g id="Group">
                        <g id="Mark-Copy">
                            <polygon id="Line-Copy-3"
                                transform="translate(37.000000, 67.000000) rotate(-300.000000) translate(-37.000000, -67.000000) "
                                points="35 74.0516078 35 76 39 76 39 74.0516078 39 59.9483922 39 58 35 58 35 59.9483922" />
                            <polygon id="Line"
                                transform="translate(83.000000, 67.000000) rotate(-60.000000) translate(-83.000000, -67.000000) "
                                points="81 74.0516078 81 76 85 76 85 74.0516078 85 59.9483922 85 58 81 58 81 59.9483922" />
                            <path
                                d="M80,54 C80,42.954305 71.045695,34 60,34 C48.954305,34 40,42.954305 40,54 C40,65.045695 48.954305,74 60,74 C71.045695,74 80,65.045695 80,54 Z M44.2328042,54 C44.2328042,45.2920182 51.2920182,38.2328042 60,38.2328042 C68.7079818,38.2328042 75.7671958,45.2920182 75.7671958,54 C75.7671958,62.7079818 68.7079818,69.7671958 60,69.7671958 C51.2920182,69.7671958 44.2328042,62.7079818 44.2328042,54 Z"
                                id="Oval-Copy-2" />
                            <circle id="Oval-Copy-6" cx="24" cy="75" r="3" />
                            <circle id="Oval-Copy-12" cx="60" cy="96" r="3" />
                            <circle id="Oval-Copy-13" cx="60" cy="12" r="3" />
                            <circle id="Oval-Copy-14" cx="96" cy="33" r="3" />
                            <circle id="Oval-Copy-16" cx="24" cy="33" r="3" />
                            <circle id="Oval-Copy-15" cx="96" cy="75" r="3" />
                            <ellipse id="Oval-Copy-6" cx="60" cy="54" rx="3" ry="3" />
                            <polygon id="Line"
                                points="2 52 -4.42312853e-13 52 -4.54747351e-13 56 2 56 40 56 42 56 42 52 40 52" />
                            <polygon id="Line"
                                points="80 52 78 52 78 56 80 56 118 56 120 56 120 52 118 52" />
                            <polygon id="Line-Copy-4"
                                points="72.8299167 70.3885725 71.8231708 68.660434 68.3668937 70.6739258 69.3736396 72.4020643 88.5018116 105.236696 89.5085575 106.964834 92.9648345 104.951343 91.9580886 103.223204" />
                            <polygon id="Line-Copy-4"
                                points="32.5813684 2.14002423 31.5746225 0.411885722 28.1183455 2.42537751 29.1250914 4.15351602 48.2532633 36.9881477 49.2600092 38.7162862 52.7162862 36.7027944 51.7095403 34.9746559" />
                            <polygon id="Line-Copy-7"
                                points="90.7095403 4.15351602 91.7162862 2.42537751 88.2600092 0.411885722 87.2532633 2.14002423 68.1250914 34.9746559 67.1183455 36.7027944 70.5746225 38.7162862 71.5813684 36.9881477" />
                            <polygon id="Line-Copy-7"
                                points="50.8265046 72.5969413 51.8332505 70.8688028 48.3769735 68.855311 47.3702276 70.5834495 28.2420556 103.418081 27.2353097 105.14622 30.6915868 107.159712 31.6983326 105.431573" />
                            <polygon id="Line"
                                points="58 87.0167635 58 89 62 89 62 87.0167635 62 72.9832365 62 71 58 71 58 72.9832365" />
                            <polygon id="Line"
                                points="58 35.0516078 58 37 62 37 62 35.0516078 62 20.9483922 62 19 58 19 58 20.9483922" />
                            <polygon id="Line-Copy-2"
                                transform="translate(37.000000, 41.000000) rotate(-60.000000) translate(-37.000000, -41.000000) "
                                points="35 48.0516078 35 50 39 50 39 48.0516078 39 33.9483922 39 32 35 32 35 33.9483922" />
                            <polygon id="Line-Copy"
                                transform="translate(83.000000, 41.000000) rotate(-300.000000) translate(-83.000000, -41.000000) "
                                points="81 48.0516078 81 50 85 50 85 48.0516078 85 33.9483922 85 32 81 32 81 33.9483922" />
                        </g>
                    </g>
                </g>
            </g>
        </g>
    </symbol>

    <symbol id="ts-logo" fill="none" viewBox="0 0 128 128" xmlns="http://www.w3.org/2000/svg"
    >
        <rect fill="#3178c6" height="128" rx="6" width="128" />
        <path clip-rule="evenodd"
            d="m74.2622 99.468v14.026c2.2724 1.168 4.9598 2.045 8.0625 2.629 3.1027.585 6.3728.877 9.8105.877 3.3503 0 6.533-.321 9.5478-.964 3.016-.643 5.659-1.702 7.932-3.178 2.272-1.476 4.071-3.404 5.397-5.786 1.325-2.381 1.988-5.325 1.988-8.8313 0-2.5421-.379-4.7701-1.136-6.6841-.758-1.9139-1.85-3.6159-3.278-5.1062-1.427-1.4902-3.139-2.827-5.134-4.0104-1.996-1.1834-4.246-2.3011-6.752-3.353-1.8352-.7597-3.4812-1.4975-4.9378-2.2134-1.4567-.7159-2.6948-1.4464-3.7144-2.1915-1.0197-.7452-1.8063-1.5341-2.3598-2.3669-.5535-.8327-.8303-1.7751-.8303-2.827 0-.9643.2476-1.8336.7429-2.6079s1.1945-1.4391 2.0976-1.9943c.9031-.5551 2.0101-.9861 3.3211-1.2929 1.311-.3069 2.7676-.4603 4.3699-.4603 1.1658 0 2.3958.0877 3.6928.263 1.296.1753 2.6.4456 3.911.8109 1.311.3652 2.585.8254 3.824 1.3806 1.238.5552 2.381 1.198 3.43 1.9285v-13.1051c-2.127-.8182-4.45-1.4245-6.97-1.819s-5.411-.5917-8.6744-.5917c-3.3211 0-6.4674.3579-9.439 1.0738-2.9715.7159-5.5862 1.8336-7.844 3.353-2.2578 1.5195-4.0422 3.4553-5.3531 5.8075-1.311 2.3522-1.9665 5.1646-1.9665 8.4373 0 4.1785 1.2017 7.7433 3.6052 10.6945 2.4035 2.9513 6.0523 5.4496 10.9466 7.495 1.9228.7889 3.7145 1.5633 5.375 2.323 1.6606.7597 3.0954 1.5486 4.3044 2.3668s2.1628 1.7094 2.8618 2.6736c.7.9643 1.049 2.06 1.049 3.2873 0 .9062-.218 1.7462-.655 2.5202s-1.1 1.446-1.9885 2.016c-.8886.57-1.9956 1.016-3.3212 1.337-1.3255.321-2.8768.482-4.6539.482-3.0299 0-6.0305-.533-9.0021-1.6-2.9715-1.066-5.7245-2.666-8.2591-4.799zm-23.5596-34.9136h18.2974v-11.5544h-51v11.5544h18.2079v51.4456h14.4947z"
            fill="#fff" fill-rule="evenodd" />
    </symbol>
</svg>